<svg xmlns="http://www.w3.org/2000/svg" width="470" height="200"><g transform="translate(0 -922.52)"><rect style="marker:none" width="466.22" height="196.22" x="1.89" y="924.409" rx="16.232" ry="16.232" stroke="#888a85" stroke-width="3.78"/><g fill="#fff"><g style="line-height:1.25;-inkscape-font-specification:'Red Hat Display, Heavy';font-variant-ligatures:normal;font-variant-caps:normal;font-variant-numeric:normal;font-variant-east-asian:normal"><path style="-inkscape-font-specification:'Red Hat Display, Heavy';font-variant-ligatures:normal;font-variant-caps:normal;font-variant-numeric:normal;font-variant-east-asian:normal" d="M236.144 1059.273c-4.294 0-7.471-3.353-7.471-7.883 0-4.53 3.118-7.942 7.235-7.942 2.766 0 4.943 1.119 7.118 3.59l5.824-6.06c-3.235-3.648-8.06-5.765-13.176-5.765-9.295 0-16.472 7.06-16.472 16.177 0 9.118 7.177 16.12 16.47 16.12 4.943 0 9.707-2.117 12.884-5.707l-5.647-5.883c-2.058 2.294-4.177 3.353-6.765 3.353zm22.07-26.354a5.247 5.247 0 005.236-5.236 5.247 5.247 0 00-5.236-5.235 5.247 5.247 0 00-5.237 5.235 5.247 5.247 0 005.237 5.236zm4.764 2.882h-9.53v31.12h9.53zm7.011 31.12h9.53v-19.766a8.488 8.488 0 017.235-3.941c1.647 0 3.294.353 4.53.941v-8.295c-.823-.53-1.764-.706-3.589-.764-3.352 0-6.118 1.352-8.176 3.822v-3.117h-9.53zm40.894-7.648c-4.294 0-7.47-3.353-7.47-7.883 0-4.53 3.115-7.942 7.234-7.942 2.765 0 4.943 1.119 7.118 3.59l5.824-6.06c-3.236-3.648-8.058-5.765-13.176-5.765-9.294 0-16.472 7.06-16.472 16.177 0 9.118 7.177 16.12 16.47 16.12 4.943 0 9.707-2.117 12.885-5.707l-5.648-5.883c-2.058 2.294-4.177 3.353-6.764 3.353zm26.835-35.591l-9.53 2.06v41.179h9.53zm35.541 39.122l-6.295-5.59c-1.47 1.53-3.647 2.353-6.236 2.353-3.588 0-6.412-2-7.646-4.941h22.177v-2.354c0-9.826-6.588-17.002-15.708-17.002-9.118 0-16.236 7.06-16.236 16.119 0 9.06 7.413 16.119 16.944 16.119 5.176 0 9.059-1.412 13-4.707zm-13.883-19.767c3.058 0 5.53 1.94 6.53 4.94h-13.001c.941-3.116 3.294-4.939 6.47-4.939z" word-spacing="0" letter-spacing="4.303" font-family="'Red Hat Display'" font-size="224.56" font-weight="900" aria-label="circle"/></g><path d="M120.153 961.054a64.624 64.624 0 00-64.487 64.624 64.624 64.624 0 0064.624 64.625 64.624 64.624 0 0064.624-64.625 64.624 64.624 0 00-64.624-64.624 64.624 64.624 0 00-.137 0zm.123 13.073a51.551 51.551 0 01.014 0 51.551 51.551 0 0151.552 51.551 51.551 51.551 0 01-51.552 51.552 51.551 51.551 0 01-51.551-51.552 51.551 51.551 0 0151.537-51.551z"/><path d="M120.187 986.178a39.5 39.5 0 00-39.398 39.5 39.5 39.5 0 0039.501 39.501 39.5 39.5 0 0039.501-39.5 39.5 39.5 0 00-39.5-39.501 39.5 39.5 0 00-.104 0zm.103 14.148a25.35 25.35 0 0125.35 25.352 25.35 25.35 0 01-25.35 25.353 25.35 25.35 0 01-25.352-25.35 25.35 25.35 0 0125.352-25.355z"/><g style="line-height:1.25;-inkscape-font-specification:'Red Hat Display, Normal';font-variant-ligatures:normal;font-variant-caps:normal;font-variant-numeric:normal;font-variant-east-asian:normal"><path style="-inkscape-font-specification:'Red Hat Display, Normal';font-variant-ligatures:normal;font-variant-caps:normal;font-variant-numeric:normal;font-variant-east-asian:normal" d="M248.095 999.658v-1.229h-13.046v2.696h9.953c-.475 5.431-4.798 9.436-10.43 9.436-6.341 0-11.219-4.994-11.219-11.496 0-6.506 4.878-11.5 11.221-11.5 3.41 0 6.74 1.428 8.88 3.846l2.064-2.101c-2.697-2.895-6.66-4.56-10.945-4.56-8.008 0-14.312 6.343-14.312 14.313 0 7.968 6.343 14.314 14.353 14.314 7.612 0 13.48-5.988 13.48-13.719zm5.478-14.472v27.755h2.894v-23.117l17.05 23.117h2.696v-27.755h-2.895v22.521l-16.692-22.52zm56.785 13.877c0-8.01-6.304-14.314-14.274-14.314-8.01 0-14.314 6.304-14.314 14.314s6.304 14.314 14.314 14.314c7.97 0 14.274-6.305 14.274-14.314zm-3.093 0c0 6.462-4.877 11.498-11.181 11.498-6.344 0-11.221-5.036-11.221-11.496 0-6.506 4.877-11.5 11.22-11.5 6.305 0 11.182 4.996 11.182 11.498zm22.37 11.895l10.863-22.283v24.266h2.895v-27.755h-4.282l-9.437 19.706-9.477-19.706h-4.282v27.755h2.855v-24.227zm20.623 1.983h20.024v-2.697h-16.97v-9.992h10.982v-2.655h-10.983v-9.716h16.812v-2.695h-19.865z" word-spacing="0" letter-spacing="2.901" font-family="'Red Hat Display'" font-size="151.355" font-weight="400" aria-label="GNOME"/></g></g></g></svg>